<?xml version="1.0" encoding="utf-8"?>
<!-- Generator: Adobe Illustrator 23.0.2, SVG Export Plug-In . SVG Version: 6.00 Build 0)  -->
<svg version="1.1" id="Layer_1" xmlns="http://www.w3.org/2000/svg" xmlns:xlink="http://www.w3.org/1999/xlink" x="0px" y="0px"
	 viewBox="0 0 191.32 54.9" style="enable-background:new 0 0 191.32 54.9;" xml:space="preserve">
<style type="text/css">
	.st0{fill:#D2D2D1;}
</style>
<g>
	<path class="st0" d="M58.28,42.59c0,4.03-2.02,6.34-5.9,6.34c-3.89,0-5.9-2.3-5.9-6.34v-13.1c0-4.03,2.02-6.34,5.9-6.34
		c3.89,0,5.9,2.3,5.9,6.34v2.45h-3.74v-2.7c0-1.8-0.79-2.48-2.05-2.48s-2.05,0.68-2.05,2.48v13.61c0,1.8,0.79,2.45,2.05,2.45
		s2.05-0.65,2.05-2.45v-3.6h3.74V42.59z"/>
	<path class="st0" d="M60.69,48.64v-25.2h3.96v10.8h4.5v-10.8h4.03v25.2h-4.03v-10.8h-4.5v10.8H60.69z"/>
	<path class="st0" d="M84.88,48.64l-0.68-4.57h-4.86l-0.68,4.57h-3.64l4.03-25.2h5.8l4.03,25.2H84.88z M83.66,40.64L81.75,27.9
		l-1.91,12.74H83.66z"/>
	<path class="st0" d="M100.43,23.44v3.6h-4.14v21.6h-3.96v-21.6h-4.14v-3.6H100.43z"/>
	<path class="st0" d="M110.98,48.64l-0.68-4.57h-4.86l-0.68,4.57h-3.64l4.03-25.2h5.8l4.03,25.2H110.98z M109.76,40.64l-1.91-12.74
		l-1.91,12.74H109.76z"/>
	<path class="st0" d="M128.55,29.67v3.28c0,4.03-1.94,6.23-5.9,6.23h-1.87v9.47h-3.96v-25.2h5.83
		C126.6,23.44,128.55,25.63,128.55,29.67z M120.77,35.57h1.87c1.26,0,1.94-0.58,1.94-2.38v-3.78c0-1.8-0.68-2.38-1.94-2.38h-1.87
		V35.57z"/>
	<path class="st0" d="M142.12,29.67v3.28c0,4.03-1.94,6.23-5.9,6.23h-1.87v9.47h-3.96v-25.2h5.83
		C140.18,23.44,142.12,25.63,142.12,29.67z M134.34,35.57h1.87c1.26,0,1.94-0.58,1.94-2.38v-3.78c0-1.8-0.68-2.38-1.94-2.38h-1.87
		V35.57z"/>
</g>
<path class="st0" d="M40.85,30.9c1.8-1.99,2.84-4.31,2.84-6.79c0-7.36-9.11-13.33-20.34-13.33S3,16.75,3,24.11
	c0,7.36,9.11,13.33,20.34,13.33c5.81,0,11.05-1.6,14.76-4.16c2.32,1.14,5.59,1.63,5.59,1.63S41.98,32.8,40.85,30.9z"/>
<path class="st0" d="M149.49,35.38c-1.81-2-2.85-4.33-2.85-6.81c0-7.39,9.14-13.38,20.42-13.38s20.42,5.99,20.42,13.38
	c0,7.39-9.14,13.38-20.42,13.38c-5.83,0-11.09-1.61-14.81-4.18c-2.33,1.15-5.61,1.64-5.61,1.64S148.36,37.29,149.49,35.38z"/>
</svg>
